<?xml version="1.0" encoding="UTF-8"?>
<svg version="1.1" xmlns="http://www.w3.org/2000/svg" width="1600" height="400">
<path d="M0 0 C528 0 1056 0 1600 0 C1600 132 1600 264 1600 400 C1072 400 544 400 0 400 C0 268 0 136 0 0 Z " fill="#FEFEFE" transform="translate(0,0)"/>
<path d="M0 0 C1.34888732 0.00015905 2.69778075 0.00584927 4.04663086 0.01586914 C5.10991859 0.01799156 5.10991859 0.01799156 6.19468689 0.02015686 C8.46699173 0.02577096 10.73919936 0.03832576 13.01147461 0.05102539 C14.54858257 0.05603858 16.08569206 0.0606018 17.62280273 0.06469727 C21.39823103 0.07574497 25.17358632 0.09301898 28.94897461 0.11352539 C32.48964383 6.87692619 35.34004116 13.83285482 38.15209961 20.92602539 C38.87607941 22.74021973 38.87607941 22.74021973 39.61468506 24.59106445 C40.88686127 27.77907688 42.15488373 30.96872496 43.42199707 34.15875244 C44.72011216 37.42463869 46.02218163 40.68894756 47.32397461 43.95336914 C49.86988431 50.33841338 52.4092548 56.72600266 54.94897461 63.11352539 C72.76897461 63.44352539 90.58897461 63.77352539 108.94897461 64.11352539 C108.94897461 42.99352539 108.94897461 21.87352539 108.94897461 0.11352539 C119.50897461 0.11352539 130.06897461 0.11352539 140.94897461 0.11352539 C140.94897461 21.23352539 140.94897461 42.35352539 140.94897461 64.11352539 C162.06897461 64.11352539 183.18897461 64.11352539 204.94897461 64.11352539 C204.94897461 42.99352539 204.94897461 21.87352539 204.94897461 0.11352539 C215.50897461 0.11352539 226.06897461 0.11352539 236.94897461 0.11352539 C236.85874023 4.64329102 236.76850586 9.17305664 236.67553711 13.84008789 C236.64955367 16.73892281 236.62778087 19.63660899 236.62084961 22.53540039 C236.60949443 27.12072123 236.58400042 31.70240782 236.46557617 36.28637695 C235.22754075 55.64408863 235.22754075 55.64408863 243.05380249 72.39804077 C245.87386894 74.96232597 248.71752837 77.08817864 251.94897461 79.11352539 C250.77442124 83.33048545 249.13267279 84.76179528 245.5680542 87.15081787 C241.07700033 90.46213713 238.42866343 93.83692325 237.26269531 99.37060547 C236.31206715 108.42508575 236.4791119 117.51439802 236.66143799 126.60546875 C236.7353887 131.05405495 236.71897181 135.50316001 236.71812439 139.95223999 C236.72675251 146.67553411 236.84836497 153.38815805 236.94897461 160.11352539 C226.38897461 160.11352539 215.82897461 160.11352539 204.94897461 160.11352539 C204.94897461 138.99352539 204.94897461 117.87352539 204.94897461 96.11352539 C183.82897461 96.11352539 162.70897461 96.11352539 140.94897461 96.11352539 C140.94897461 117.23352539 140.94897461 138.35352539 140.94897461 160.11352539 C130.38897461 160.11352539 119.82897461 160.11352539 108.94897461 160.11352539 C108.94897461 138.99352539 108.94897461 117.87352539 108.94897461 96.11352539 C95.41897461 96.11352539 81.88897461 96.11352539 67.94897461 96.11352539 C69.75366211 100.56594727 71.55834961 105.01836914 73.41772461 109.60571289 C74.55742961 112.42196588 75.69692967 115.23829834 76.83569336 118.05493164 C78.64440362 122.52856357 80.45387699 127.00187638 82.26782227 131.47338867 C83.72971595 135.07720227 85.18824618 138.68235987 86.64442444 142.28848648 C87.20141773 143.66612588 87.75963463 145.0432712 88.31907654 146.41991806 C89.10061776 148.34368634 89.87784488 150.2691432 90.65405273 152.19506836 C91.32023621 153.84054153 91.32023621 153.84054153 91.99987793 155.51925659 C92.94897461 158.11352539 92.94897461 158.11352539 92.94897461 160.11352539 C82.38897461 160.11352539 71.82897461 160.11352539 60.94897461 160.11352539 C54.7133241 145.16298983 48.52855191 130.2011607 42.5730896 115.13693237 C41.99026456 113.6627877 41.40629986 112.1890931 40.82119751 110.71585083 C40.0007089 108.6480256 39.18497745 106.5783931 38.37084961 104.50805664 C37.90259766 103.32058838 37.4343457 102.13312012 36.9519043 100.90966797 C35.94897461 98.11352539 35.94897461 98.11352539 35.94897461 96.11352539 C18.77861247 96.37709056 5.25078434 97.0437212 -8.05102539 109.11352539 C-20.65613036 122.89978221 -26.73605767 139.8825587 -33.22241211 157.11083984 C-34.05102539 159.11352539 -34.05102539 159.11352539 -35.05102539 160.11352539 C-37.42671059 160.2019221 -39.77311213 160.22882844 -42.14868164 160.21118164 C-43.21196938 160.20905922 -43.21196938 160.20905922 -44.29673767 160.20689392 C-46.56904251 160.20127982 -48.84125014 160.18872502 -51.11352539 160.17602539 C-52.65063335 160.1710122 -54.18774284 160.16644898 -55.72485352 160.16235352 C-59.50027862 160.15215518 -63.2756383 160.1331956 -67.05102539 160.11352539 C-62.11356529 146.7028177 -56.84626766 133.42924789 -51.55102539 120.15649414 C-50.62893569 117.84187542 -49.7069822 115.52720242 -48.78515625 113.21247864 C-46.36551187 107.13784408 -43.94390847 101.06399233 -41.52191162 94.99029541 C-39.1045452 88.92706818 -36.68923624 82.86302148 -34.27368164 76.79907227 C-30.12542565 66.38614215 -25.97374565 55.97458234 -21.81980896 45.56391716 C-19.42559745 39.56265154 -17.03445962 33.56017978 -14.64741516 27.55605984 C-13.31607875 24.20817063 -11.98283804 20.86104216 -10.6491394 17.5140934 C-10.04822845 16.00472099 -9.44821332 14.49499158 -8.84915161 12.98488426 C-8.04766575 10.96473976 -7.24311749 8.94584321 -6.43774414 6.92724609 C-5.77585083 5.26252007 -5.77585083 5.26252007 -5.10058594 3.56416321 C-3.63200321 0.13514295 -3.63200321 0.13514295 0 0 Z " fill="#8A20F3" transform="translate(147.051025390625,119.886474609375)"/>
<path d="M0 0 C7.59 0 15.18 0 23 0 C23.33 21.12 23.66 42.24 24 64 C25.65 61.03 27.3 58.06 29 55 C34.26286386 46.81332288 43.87149249 41.73855225 53 39 C67.47745184 36.11997287 82.44321512 38.19264046 94.86328125 46.4453125 C95.56839844 46.95835937 96.27351563 47.47140625 97 48 C97.63292969 48.45117188 98.26585937 48.90234375 98.91796875 49.3671875 C109.91932915 57.96427709 116.0169323 71.64791578 117.71875 85.24609375 C118.62633524 97.35983565 119.11926344 109.40626661 115 121 C114.6596875 122.00289063 114.319375 123.00578125 113.96875 124.0390625 C108.69650372 138.11026034 99.34460844 147.10202646 86.16015625 153.703125 C79.70474865 156.35231576 73.64577124 157.36771167 66.6875 157.3125 C65.57665039 157.30512817 65.57665039 157.30512817 64.44335938 157.29760742 C52.35247005 157.0411101 41.69608821 152.90437479 32.63671875 144.81640625 C28.98316786 140.76174953 26.42987362 135.85974724 24 131 C23.67 138.92 23.34 146.84 23 155 C15.41 155 7.82 155 0 155 C0 103.85 0 52.7 0 0 Z " fill="#303030" transform="translate(1390,123)"/>
<path d="M0 0 C9.24 0 18.48 0 28 0 C31.12095179 7.4902843 34.16798942 14.93383911 36.9765625 22.53515625 C37.52122414 24.00014809 37.52122414 24.00014809 38.07688904 25.49473572 C39.26177146 28.68318619 40.44338285 31.87283818 41.625 35.0625 C42.46126073 37.31454465 43.29777247 39.5664961 44.13452148 41.81835938 C45.87724798 46.5089268 47.61888937 51.1998951 49.35986328 55.89111328 C52.77024131 65.07766674 56.19379512 74.25929953 59.61743164 83.44091797 C61.23406631 87.77660068 62.84914706 92.11285659 64.46264648 96.44970703 C69.02548208 108.71912778 69.02548208 108.71912778 73.62727356 120.97396851 C74.37702295 122.96045616 75.12438219 124.94782399 75.87084961 126.93554688 C76.71266019 129.17454761 77.55935564 131.41172175 78.41235352 133.64648438 C78.94107056 135.05704102 78.94107056 135.05704102 79.48046875 136.49609375 C79.77848389 137.28169678 80.07649902 138.0672998 80.38354492 138.87670898 C81 141 81 141 81 145 C72.75 145 64.5 145 56 145 C50.555 129.655 50.555 129.655 45 114 C24.54 114 4.08 114 -17 114 C-22.445 129.345 -22.445 129.345 -28 145 C-36.58 145 -45.16 145 -54 145 C-52.05762846 138.5254282 -50.07289451 132.24583573 -47.68359375 125.94921875 C-47.35885574 125.08516922 -47.03411774 124.22111969 -46.69953918 123.33088684 C-45.61535254 120.44855707 -44.52642523 117.56804256 -43.4375 114.6875 C-42.6601854 112.62380952 -41.88317624 110.56000398 -41.10644531 108.49609375 C-39.14673309 103.29107823 -37.18384218 98.08726858 -35.2199192 92.88384056 C-32.51463392 85.71528643 -29.81414467 78.54492649 -27.1135273 71.37461281 C-23.36401092 61.41941849 -19.61400731 51.46440857 -15.86108398 41.51049805 C-15.58784459 40.78574689 -15.3146052 40.06099573 -15.03308582 39.31428242 C-13.7502486 35.91166852 -12.46727544 32.509106 -11.18403625 29.10664368 C-10.72143906 27.87971298 -10.25884186 26.65278229 -9.78222656 25.38867188 C-9.33206177 24.19491943 -8.88189697 23.00116699 -8.41809082 21.77124023 C-7.39087407 19.04331864 -6.36945915 16.31327841 -5.35046387 13.58227539 C-4.93975458 12.48275921 -4.93975458 12.48275921 -4.52074814 11.36103058 C-3.99092169 9.94196628 -3.46200506 8.52256186 -2.93411636 7.10277557 C-1.1113471 2.2226942 -1.1113471 2.2226942 0 0 Z " fill="#303030" transform="translate(541,133)"/>
<path d="M0 0 C7.92 0 15.84 0 24 0 C24 20.46 24 40.92 24 62 C47.1 62 70.2 62 94 62 C94 41.54 94 21.08 94 0 C101.92 0 109.84 0 118 0 C118 48.84 118 97.68 118 148 C110.08 148 102.16 148 94 148 C94 126.22 94 104.44 94 82 C70.9 82 47.8 82 24 82 C24 104.11 24 126.22 24 149 C16.08 149 8.16 149 0 149 C0 99.83 0 50.66 0 0 Z " fill="#313131" transform="translate(1107,130)"/>
<path d="M0 0 C1.34888732 0.00015905 2.69778075 0.00584927 4.04663086 0.01586914 C5.10991859 0.01799156 5.10991859 0.01799156 6.19468689 0.02015686 C8.46699173 0.02577096 10.73919936 0.03832576 13.01147461 0.05102539 C14.54858257 0.05603858 16.08569206 0.0606018 17.62280273 0.06469727 C21.39823103 0.07574497 25.17358632 0.09301898 28.94897461 0.11352539 C32.39304616 6.7083547 35.19695583 13.46816908 37.93334961 20.38305664 C38.39380676 21.54101242 38.85426392 22.6989682 39.32867432 23.89201355 C40.54135207 26.94584771 41.75038342 30.00109677 42.95843506 33.0567627 C43.94871291 35.55641238 44.94544133 38.0534694 45.9420433 40.55060291 C47.13140244 43.53453581 48.31322098 46.52145117 49.49584961 49.50805664 C49.94265076 50.62678665 50.3894519 51.74551666 50.84979248 52.89814758 C51.2573175 53.93319931 51.66484253 54.96825104 52.0847168 56.03466797 C52.44571472 56.9454158 52.80671265 57.85616364 53.1786499 58.79450989 C53.94897461 61.11352539 53.94897461 61.11352539 53.94897461 64.11352539 C43.71897461 64.11352539 33.48897461 64.11352539 22.94897461 64.11352539 C20.43532184 59.08621986 18.17895946 54.4329301 16.19897461 49.23852539 C15.77100586 48.12735352 15.34303711 47.01618164 14.90209961 45.87133789 C13.94897461 43.11352539 13.94897461 43.11352539 13.94897461 41.11352539 C13.28897461 41.11352539 12.62897461 41.11352539 11.94897461 41.11352539 C11.78920387 42.1234127 11.78920387 42.1234127 11.62620544 43.15370178 C10.80388162 46.74765136 9.49663873 50.06566226 8.11328125 53.47070312 C7.67897041 54.55461838 7.67897041 54.55461838 7.23588562 55.66043091 C6.2809502 58.04094871 5.32000597 60.41899339 4.35913086 62.79711914 C3.69231684 64.4569462 3.02593632 66.11694747 2.35997009 67.77711487 C0.60700865 72.14432172 -1.15081572 76.50955342 -2.90997314 80.87426758 C-5.72312968 87.85597733 -8.52962419 94.84036428 -11.33474922 101.82530403 C-12.31342487 104.25994248 -13.29460396 106.6935605 -14.27610779 109.12705994 C-14.87945449 110.62699612 -15.48273457 112.12695911 -16.0859375 113.62695312 C-16.35769806 114.29883163 -16.62945862 114.97071014 -16.90945435 115.66294861 C-18.42649155 119.44215927 -19.78465391 123.24391197 -21.05102539 127.11352539 C-21.94884033 129.38409127 -22.86691059 131.6467132 -23.80102539 133.90258789 C-24.05980469 134.52829681 -24.31858398 135.15400574 -24.58520508 135.79867554 C-25.12880781 137.11171958 -25.67341859 138.42434671 -26.21899414 139.73657227 C-27.05110848 141.7387253 -27.87942101 143.74242024 -28.70727539 145.74633789 C-32.77471035 155.56089531 -32.77471035 155.56089531 -35.05102539 160.11352539 C-45.61102539 160.11352539 -56.17102539 160.11352539 -67.05102539 160.11352539 C-62.09117234 146.70994523 -56.84674926 133.43045506 -51.55102539 120.15649414 C-50.62893569 117.84187542 -49.7069822 115.52720242 -48.78515625 113.21247864 C-46.36551187 107.13784408 -43.94390847 101.06399233 -41.52191162 94.99029541 C-39.1045452 88.92706818 -36.68923624 82.86302148 -34.27368164 76.79907227 C-30.12542565 66.38614215 -25.97374565 55.97458234 -21.81980896 45.56391716 C-19.42559745 39.56265154 -17.03445962 33.56017978 -14.64741516 27.55605984 C-13.31607875 24.20817063 -11.98283804 20.86104216 -10.6491394 17.5140934 C-10.04822845 16.00472099 -9.44821332 14.49499158 -8.84915161 12.98488426 C-8.04766575 10.96473976 -7.24311749 8.94584321 -6.43774414 6.92724609 C-5.77585083 5.26252007 -5.77585083 5.26252007 -5.10058594 3.56416321 C-3.63200321 0.13514295 -3.63200321 0.13514295 0 0 Z " fill="#434243" transform="translate(147.051025390625,119.886474609375)"/>
<path d="M0 0 C7.92 0 15.84 0 24 0 C24.01458252 2.09843262 24.02916504 4.19686523 24.04418945 6.35888672 C24.09472568 13.32394598 24.16135327 20.28878613 24.23571491 27.25362968 C24.28027468 31.47277763 24.31956167 35.69183221 24.34643555 39.91113281 C24.37261324 43.98971955 24.41311549 48.06794419 24.46318626 52.14630508 C24.47975786 53.69542023 24.49133216 55.24459787 24.49761391 56.79378891 C24.54973438 68.4754541 25.23396424 79.60121278 33 89 C40.49735105 95.90037228 48.98127423 96.63336801 58.7890625 96.37109375 C66.37476211 95.89719833 71.66408091 92.70952335 76.875 87.3125 C82.74949416 80.01094712 85.08767406 71.42208823 85.20532227 62.21191406 C85.21522186 61.53833359 85.22512146 60.86475311 85.23532104 60.17076111 C85.26681658 57.95241771 85.29164597 55.73405293 85.31640625 53.515625 C85.33698611 51.97433934 85.35798285 50.4330592 85.37937927 48.89178467 C85.4344934 44.84108962 85.48394954 40.79034453 85.53222656 36.73956299 C85.58251956 32.60367394 85.63816487 28.46785728 85.69335938 24.33203125 C85.80081054 16.22141379 85.9017895 8.11073462 86 0 C93.92 0 101.84 0 110 0 C110 38.28 110 76.56 110 116 C102.08 116 94.16 116 86 116 C85.67 108.41 85.34 100.82 85 93 C84.195625 94.485 83.39125 95.97 82.5625 97.5 C75.86451794 108.53839933 66.9486989 113.01710037 55 117 C39.41505138 117.71521109 25.69044779 116.84317752 13.3125 106.125 C10.05636116 102.58571865 7.88650696 98.49303534 5.6875 94.25 C5.18053589 93.28537842 5.18053589 93.28537842 4.66333008 92.30126953 C-0.70146238 81.32171708 -0.27465033 69.44773015 -0.1953125 57.51953125 C-0.19157445 55.85373608 -0.18873123 54.18793868 -0.18673706 52.5221405 C-0.17916286 48.17387642 -0.15956905 43.82574956 -0.1373291 39.47753906 C-0.11673551 35.02606054 -0.10770667 30.57455948 -0.09765625 26.12304688 C-0.07631621 17.41529511 -0.04118605 8.70768053 0 0 Z " fill="#313131" transform="translate(1251,163)"/>
<path d="M0 0 C0.66 0 1.32 0 2 0 C4.97 7.26 7.94 14.52 11 22 C13.52527344 21.98259766 13.52527344 21.98259766 16.1015625 21.96484375 C43.07452426 21.84575783 70.03387524 22.44806177 97 23 C97 33.56 97 44.12 97 55 C83.47 55 69.94 55 56 55 C57.8046875 59.45242187 59.609375 63.90484375 61.46875 68.4921875 C62.608455 71.30844049 63.74795506 74.12477295 64.88671875 76.94140625 C66.69542901 81.41503818 68.50490238 85.88835099 70.31884766 90.35986328 C71.78074134 93.96367688 73.23927157 97.56883448 74.69544983 101.17496109 C75.25244312 102.55260049 75.81066002 103.9297458 76.37010193 105.30639267 C77.15164315 107.23016095 77.92887027 109.15561781 78.70507812 111.08154297 C79.14920044 112.17852509 79.59332275 113.2755072 80.05090332 114.4057312 C81 117 81 117 81 119 C70.44 119 59.88 119 49 119 C42.76434949 104.04946444 36.5795773 89.08763531 30.62411499 74.02340698 C30.04128995 72.54926231 29.45732525 71.07556771 28.8722229 69.60232544 C28.05173429 67.53450021 27.23600284 65.46486771 26.421875 63.39453125 C25.95362305 62.20706299 25.48537109 61.01959473 25.00292969 59.79614258 C24 57 24 57 24 55 C6.89926057 55.26249646 -6.79524127 55.87666547 -20 68 C-22.88255709 71.2537655 -25.4680063 74.7151009 -28.00390625 78.2421875 C-30 81 -30 81 -32 83 C-31.29867388 78.50994354 -29.72787361 74.46455564 -28.04077148 70.2722168 C-27.73826477 69.51070816 -27.43575806 68.74919952 -27.12408447 67.96461487 C-26.12712236 65.45785453 -25.12414941 62.95354631 -24.12109375 60.44921875 C-23.42712324 58.70773388 -22.73352999 56.96609863 -22.04029846 55.22431946 C-20.21760266 50.64765054 -18.38979497 46.0730401 -16.56091309 41.49884033 C-14.69441642 36.82793395 -12.83276447 32.15509775 -10.97070312 27.48242188 C-7.31853948 18.31972 -3.66097221 9.15918561 0 0 Z " fill="#881FF1" transform="translate(159,161)"/>
<path d="M0 0 C9.71829199 7.79560832 13.63768218 16.73913959 15 29 C7.74 29 0.48 29 -7 29 C-8.32 25.7 -9.64 22.4 -11 19 C-14.60606986 13.43634936 -18.61914363 10.54951219 -25 9 C-35.41186467 7.94516099 -35.41186467 7.94516099 -45.3125 10.625 C-49.61632796 14.42838285 -51.12894924 17.83909742 -51.5 23.5 C-51.32322246 27.26283617 -50.59351357 29.91746883 -47.81640625 32.671875 C-40.29021228 38.17489855 -30.88483782 39.8551494 -22 42 C-7.71617628 45.45060503 5.43709027 48.997063 14 62 C17.70475315 69.5418189 18.33805545 76.99468147 16.15625 85.15625 C12.69103891 94.42803101 7.58948253 100.49385311 -1.3125 104.875 C-16.64354726 111.11242608 -34.26286522 110.74156112 -49.67578125 105.00390625 C-62.18220547 99.38282289 -69.3868849 90.03278776 -74.375 77.5625 C-75 75 -75 75 -75 71 C-67.41 71 -59.82 71 -52 71 C-50.7625 73.784375 -50.7625 73.784375 -49.5 76.625 C-46.05612658 83.51274685 -42.31068557 87.26973871 -35.1875 90.12890625 C-31.67504474 91.08880518 -28.63813283 91.30053246 -25 91.3125 C-23.2365625 91.33763672 -23.2365625 91.33763672 -21.4375 91.36328125 C-15.72493277 90.75956676 -11.68112851 88.36281897 -8 84 C-6.18475102 78.55425306 -5.90739649 72.39332198 -8.3125 67.125 C-15.85262076 61.16304405 -25.15465089 58.97978611 -34.375 57 C-63.50349757 50.2931597 -63.50349757 50.2931597 -71.50390625 37.6171875 C-75.08748918 29.85067676 -75.22425854 21.25861233 -72.75 13.125 C-69.32238381 4.34272072 -63.14619998 -2.2555039 -54.625 -6.3125 C-37.22679024 -13.21843335 -15.05858636 -11.64602902 0 0 Z " fill="#323232" transform="translate(986,171)"/>
<path d="M0 0 C9.75316156 7.7778377 14.46150715 16.69205718 16 29 C8.74 29 1.48 29 -6 29 C-7.39973958 26.00520833 -8.79947917 23.01041667 -10.19921875 20.015625 C-13.5069873 14.47636833 -17.98676831 12.07221303 -24 10 C-26.72545672 9.61372539 -29.3761308 9.57823285 -32.125 9.625 C-32.81464844 9.61339844 -33.50429688 9.60179687 -34.21484375 9.58984375 C-38.6998428 9.61557032 -41.3407275 10.4666575 -45 13 C-45.66 13 -46.32 13 -47 13 C-48.73539901 16.77622825 -49.32206713 19.85006294 -49.375 24 C-49.41753906 25.5159375 -49.41753906 25.5159375 -49.4609375 27.0625 C-48.87163091 30.81808099 -47.7023039 32.35201376 -45 35 C-38.41590361 38.59930603 -31.02905935 40.32169594 -23.75 41.9375 C-9.51084987 45.12274299 5.45243749 48.64785604 14.5 61.125 C18.58895927 68.96217193 19.3661933 77.16709086 17.34765625 85.78515625 C13.57144518 96.2710299 6.30783875 102.47884547 -3.47265625 107.19140625 C-16.2942743 112.36693984 -33.10525583 111.63513777 -46 107 C-57.1681752 102.12500289 -65.91575001 95.26137615 -71 84 C-72.24800089 80.01110658 -73.14180632 76.10025869 -74 72 C-66.08 72 -58.16 72 -50 72 C-49.01 74.97 -48.02 77.94 -47 81 C-43.14983268 86.83025337 -38.33261813 89.92573836 -31.62109375 91.58984375 C-24.52934833 92.69958037 -17.08938456 93.26256919 -11 89 C-7.59855823 86.05821252 -6.1924879 84.03847839 -5.76171875 79.4765625 C-5.72498047 78.06503906 -5.72498047 78.06503906 -5.6875 76.625 C-5.65011719 75.68914062 -5.61273437 74.75328125 -5.57421875 73.7890625 C-6.13042823 70.14563529 -7.42564869 68.60084549 -10 66 C-17.11054913 61.51114614 -25.87429504 59.95039542 -33.9375 58 C-60.7367492 51.48370207 -60.7367492 51.48370207 -69 41 C-73.19147305 33.01987079 -74.54237346 24.14211441 -72.33984375 15.37109375 C-69.11469819 6.2262005 -63.21674786 -0.07394794 -54.7890625 -4.74609375 C-37.62763219 -12.46152671 -15.42613676 -10.85542957 0 0 Z " fill="#323232" transform="translate(821,170)"/>
<path d="M0 0 C9.93181717 8.061744 14.58981008 16.30829069 16 29 C8.74 29 1.48 29 -6 29 C-6.86625 27.123125 -7.7325 25.24625 -8.625 23.3125 C-11.71682972 17.15061401 -14.15644422 13.56423782 -20.6875 10.90625 C-24.49884758 9.86352283 -28.07873193 9.6323708 -32 9.625 C-32.68578125 9.60050781 -33.3715625 9.57601562 -34.078125 9.55078125 C-40.10647072 9.51626782 -43.50963268 11.68138215 -47.8125 15.6875 C-50.26526402 20.4639352 -50.56609252 25.23512332 -48.9375 30.3125 C-45.1091388 35.62280747 -39.73436254 37.72128652 -33.625 39.5 C-32.9338208 39.70939209 -32.2426416 39.91878418 -31.53051758 40.13452148 C-26.61847563 41.59674946 -21.66754393 42.85617622 -16.6875 44.0625 C-3.99118152 47.17102006 7.66080935 50.73623257 15.0703125 62.3359375 C19.27795059 69.86725609 18.99033714 78.86656251 17.0625 87.125 C14.10128772 95.65219463 7.74069965 101.43391687 -0.125 105.5 C-14.23417613 112.07663495 -30.08202203 111.74990985 -44.796875 107.1953125 C-56.77148428 102.72673879 -65.35295337 95.55797394 -71 84 C-72.64619101 79.96838505 -74 76.37787967 -74 72 C-66.08 72 -58.16 72 -50 72 C-48.68 75.63 -47.36 79.26 -46 83 C-38.91703357 90.34052885 -32.12399833 91.86497937 -22.0625 92.3125 C-17.09125801 92.2518751 -12.9166107 91.15680631 -9 88 C-6.24306625 84.30926611 -5.56833685 81.57609366 -5.5625 77 C-5.53349609 75.4840625 -5.53349609 75.4840625 -5.50390625 73.9375 C-6.13248256 70.21553633 -7.44131602 68.74965076 -10 66 C-17.84657435 61.48978816 -26.96044315 59.52237867 -35.6875 57.4375 C-48.95165503 54.25616955 -61.84963408 50.80821086 -70 39 C-74.00918714 31.47422209 -73.25792445 19.82691939 -71.16015625 11.77734375 C-66.80658946 2.29331104 -58.42619379 -3.20580879 -49 -7 C-33.41769764 -12.54037417 -13.37706283 -9.43413227 0 0 Z " fill="#313131" transform="translate(710,170)"/>
<path d="M0 0 C10.56 0 21.12 0 32 0 C32 52.8 32 105.6 32 160 C21.44 160 10.88 160 0 160 C0 107.2 0 54.4 0 0 Z " fill="#2F2F2F" transform="translate(256,120)"/>
<path d="M0 0 C7.92 0 15.84 0 24 0 C24 9.57 24 19.14 24 29 C32.91 29 41.82 29 51 29 C51 35.6 51 42.2 51 49 C42.09 49 33.18 49 24 49 C24.04037647 57.5020317 24.09752204 66.00344956 24.18390274 74.50512123 C24.22335197 78.45313769 24.25555271 82.40093197 24.27099609 86.34912109 C24.28617993 90.16194987 24.32065493 93.97416775 24.36830902 97.78672409 C24.38310524 99.23865819 24.39104001 100.69067951 24.39188385 102.14268875 C24.39426082 104.18253362 24.42139312 106.22070005 24.45410156 108.26025391 C24.46298401 109.41941315 24.47186646 110.57857239 24.48101807 111.77285767 C25.11304191 115.70291912 26.55116113 117.8975376 29 121 C33.32010327 123.66211769 38.36837637 123.43701728 43.3125 123.625 C46.179375 123.74875 49.04625 123.8725 52 124 C52 130.6 52 137.2 52 144 C47.87459419 144.0815417 43.75082846 144.14076732 39.625 144.1875 C38.46871094 144.21263672 37.31242187 144.23777344 36.12109375 144.26367188 C25.16028999 144.35656004 16.12944502 142.76733165 8 135 C1.24945735 127.21884015 -0.13276149 119.23082638 -0.11352539 109.05493164 C-0.11367142 108.40042023 -0.11381744 107.74590881 -0.1139679 107.07156372 C-0.11327801 104.93439273 -0.10552946 102.79731178 -0.09765625 100.66015625 C-0.09578878 99.16800484 -0.09436643 97.67585281 -0.09336853 96.18370056 C-0.08956925 92.27601396 -0.07976135 88.36836514 -0.06866455 84.46069336 C-0.0583945 80.46533723 -0.05385897 76.46997493 -0.04882812 72.47460938 C-0.03813651 64.64972045 -0.02056096 56.82487035 0 49 C-5.61 49 -11.22 49 -17 49 C-17 42.4 -17 35.8 -17 29 C-11.39 29 -5.78 29 0 29 C0 19.43 0 9.86 0 0 Z " fill="#303030" transform="translate(1033,134)"/>
<path d="M0 0 C7.97363318 6.36564479 12.28553154 14.45873295 13.87890625 24.5 C14.72092059 37.47025933 13.47895374 49.29758517 4.87890625 59.5 C-0.74051356 65.65657023 -9.3128211 70.04028892 -17.6875 70.703125 C-28.70081224 70.87543236 -37.58389561 68.74269017 -46.12109375 61.5 C-55.48976948 51.60968309 -57.5348435 40.30797632 -57.39453125 27.0625 C-56.68060263 17.76102999 -52.42166725 9.32272048 -46.12109375 2.5 C-32.33145562 -8.46672252 -14.8649168 -10.09012534 0 0 Z " fill="#FCFCFC" transform="translate(1470.12109375,188.5)"/>
<path d="M0 0 C7.92 0 15.84 0 24 0 C24 38.28 24 76.56 24 116 C16.08 116 8.16 116 0 116 C0 77.72 0 39.44 0 0 Z " fill="#323232" transform="translate(863,163)"/>
<path d="M0 0 C10.56 0 21.12 0 32 0 C32 21.12 32 42.24 32 64 C21.44 64 10.88 64 0 64 C0 42.88 0 21.76 0 0 Z " fill="#2F2F2F" transform="translate(352,216)"/>
<path d="M0 0 C10.56 0 21.12 0 32 0 C32 21.12 32 42.24 32 64 C21.44 64 10.88 64 0 64 C0 42.88 0 21.76 0 0 Z " fill="#2F2F2F" transform="translate(352,120)"/>
<path d="M0 0 C4.35984461 -0.12363227 8.71876055 -0.21434908 13.07983398 -0.2746582 C14.56308768 -0.2997981 16.04621753 -0.33391592 17.52905273 -0.37719727 C19.66160595 -0.43788258 21.79252205 -0.46621116 23.92578125 -0.48828125 C25.85031128 -0.52755737 25.85031128 -0.52755737 27.8137207 -0.56762695 C31 0 31 0 32.54589844 2.17495728 C34.00019806 5.0003848 35.26221645 7.82180574 36.4519043 10.76831055 C36.912155 11.90266037 37.3724057 13.03701019 37.84660339 14.20573425 C38.57802299 16.02782158 38.57802299 16.02782158 39.32421875 17.88671875 C39.83532783 19.15284397 40.34671005 20.41885896 40.85835266 21.68476868 C41.92593193 24.32888612 42.99053966 26.97417437 44.05297852 29.62036133 C45.416326 33.01545598 46.78656856 36.4077168 48.15895367 39.79916668 C49.2141091 42.40858887 50.26589611 45.01935813 51.31662941 47.63056374 C52.0660596 49.49145892 52.81813361 51.35128865 53.57023621 53.21110535 C54.02103043 54.33599869 54.47182465 55.46089203 54.9362793 56.61987305 C55.33582321 57.61294968 55.73536713 58.60602631 56.14701843 59.62919617 C57 62 57 62 57 64 C46.44 64 35.88 64 25 64 C18.76434949 49.04946444 12.5795773 34.08763531 6.62411499 19.02340698 C6.04128995 17.54926231 5.45732525 16.07556771 4.8722229 14.60232544 C4.05173429 12.53450021 3.23600284 10.46486771 2.421875 8.39453125 C1.95362305 7.20706299 1.48537109 6.01959473 1.00292969 4.79614258 C0 2 0 2 0 0 Z " fill="#313131" transform="translate(183,216)"/>
<path d="M0 0 C0.66 0 1.32 0 2 0 C5.00437596 8.42116753 8.00367632 16.84412011 10.99648285 25.26940632 C12.38626874 29.18139536 13.77780586 33.09274297 15.17333984 37.00268555 C16.51962402 40.77484512 17.86131469 44.54860914 19.19981384 48.32353783 C19.71170732 49.76464321 20.22526322 51.20515918 20.74049377 52.64507484 C21.46094131 54.65939818 22.17549049 56.67572163 22.88867188 58.69262695 C23.2972644 59.84068314 23.70585693 60.98873932 24.12683105 62.17158508 C25 65 25 65 25 68 C8.83 68 -7.34 68 -24 68 C-21.16901116 59.50703348 -18.35575141 51.0717135 -15.25 42.6875 C-11.6995651 33.022619 -8.3083287 23.30708004 -4.96972656 13.56713867 C-4.4317041 12.00056519 -4.4317041 12.00056519 -3.8828125 10.40234375 C-3.40932373 9.01776978 -3.40932373 9.01776978 -2.92626953 7.60522461 C-2.01464306 5.04118506 -1.0280007 2.51936973 0 0 Z " fill="#FBFBFB" transform="translate(554,160)"/>
<path d="M0 0 C3 1 3 1 4.2339325 3.30197144 C4.63586319 4.32106598 5.03779388 5.34016052 5.4519043 6.39013672 C5.912155 7.54158173 6.3724057 8.69302673 6.84660339 9.87936401 C7.33953277 11.14598644 7.83206156 12.41276483 8.32421875 13.6796875 C8.83476244 14.97177568 9.34615191 16.26352996 9.85835266 17.55496216 C10.93018899 20.26426841 11.99444281 22.97638816 13.05297852 25.69091797 C14.41041113 29.1713215 15.7820945 32.64587754 17.15895367 36.11863518 C18.21577321 38.78666994 19.26713224 41.45682778 20.31662941 44.1277504 C20.82061506 45.40964364 21.3257971 46.69106718 21.83218956 47.97201157 C22.53876917 49.76298324 23.23770486 51.55696496 23.9362793 53.35107422 C24.33582321 54.37175995 24.73536713 55.39244568 25.14701843 56.44406128 C26 59 26 59 26 62 C15.77 62 5.54 62 -5 62 C-6.32 59.36 -7.64 56.72 -9 54 C-9.64469238 52.74195557 -10.28938477 51.48391113 -10.95361328 50.18774414 C-14.27460318 42.99573493 -15.80492633 37.40265245 -13.26287842 29.70614624 C-11.63665058 25.53098056 -9.78981905 21.48669442 -7.875 17.4375 C-7.1198553 15.73469411 -6.36981196 14.02961637 -5.625 12.32226562 C-3.80769083 8.18632858 -1.92437799 4.08714908 0 0 Z " fill="#323132" transform="translate(175,122)"/>
<path d="M0 0 C3.375 1.6875 3.375 1.6875 6 4 C6.78375 4.680625 7.5675 5.36125 8.375 6.0625 C10.90536942 10.63662934 11.23330812 14.92167246 10 20 C7.029747 23.84385682 2.86813935 27.62682202 -2.1015625 28.2734375 C-7.91855328 28.50755787 -11.54808771 27.70987619 -16.40625 24.484375 C-18.92232328 22.14097342 -19.8549168 20.02233042 -20.3359375 16.6328125 C-20.42485491 10.92431509 -20.05561275 7.3757927 -16 3 C-11.05186606 -0.53438139 -5.88483296 -0.86259767 0 0 Z " fill="#323232" transform="translate(880,115)"/>
<path d="M0 0 C0.66 0 1.32 0 2 0 C3.3417678 3.26743656 4.67194359 6.53946908 6 9.8125 C6.3815625 10.74126953 6.763125 11.67003906 7.15625 12.62695312 C7.5171875 13.51962891 7.878125 14.41230469 8.25 15.33203125 C8.58515625 16.15421143 8.9203125 16.9763916 9.265625 17.82348633 C10 20 10 20 10 23 C9.14277344 23.04898438 8.28554687 23.09796875 7.40234375 23.1484375 C5.68724609 23.26058594 5.68724609 23.26058594 3.9375 23.375 C2.81214844 23.44460937 1.68679687 23.51421875 0.52734375 23.5859375 C-3.63592513 23.97884488 -3.63592513 23.97884488 -10 26 C-6.7 17.42 -3.4 8.84 0 0 Z " fill="#F6F5F7" transform="translate(159,161)"/>
</svg>
