<?xml version="1.0" encoding="UTF-8"?>
<svg version="1.1" xmlns="http://www.w3.org/2000/svg" width="800" height="800">
<path d="M0 0 C264 0 528 0 800 0 C800 264 800 528 800 800 C536 800 272 800 0 800 C0 536 0 272 0 0 Z " fill="#FEFEFE" transform="translate(0,0)"/>
<path d="M0 0 C1.70209877 0.00333092 1.70209877 0.00333092 3.43858337 0.00672913 C4.71983597 0.00680466 6.00108856 0.00688019 7.32116699 0.00695801 C8.73001646 0.01206542 10.13886554 0.01728143 11.54771423 0.02259827 C12.98118033 0.02446249 14.41464706 0.02588637 15.84811401 0.02688599 C19.62765755 0.03071079 23.40716288 0.04054075 27.18669128 0.05158997 C31.04075097 0.06180489 34.8948168 0.06638378 38.74888611 0.07142639 C46.31596085 0.08216306 53.88300407 0.09923903 61.45005798 0.12025452 C64.61079712 6.21460278 67.26634309 12.40136743 69.78794861 18.78382874 C70.20151108 19.82231964 70.61507355 20.86081055 71.04116821 21.93077087 C72.39955135 25.34417863 73.75294962 28.75953927 75.10630798 32.17494202 C76.05476845 34.56106204 77.00354454 36.94705662 77.95262146 39.33293152 C80.19214939 44.96502967 82.42855697 50.59835727 84.66341829 56.23230851 C87.19325986 62.60941163 89.72694556 68.98498485 92.26102543 75.36040473 C95.35656748 83.14843972 98.45151904 90.9367083 101.54344177 98.72618103 C101.97755875 99.81984985 102.41167572 100.91351868 102.85894775 102.04032898 C103.66208039 104.06387001 104.4650998 106.08745599 105.26797485 108.11109924 C105.81026482 109.47747025 105.81026482 109.47747025 106.36351013 110.8714447 C106.70738266 111.73988888 107.05125519 112.60833305 107.4055481 113.50309372 C108.131425 115.32187649 108.86622589 117.13711281 109.60797119 118.94948196 C110.15900764 120.30004999 110.15900764 120.30004999 110.72117615 121.67790222 C111.05328346 122.48426683 111.38539078 123.29063145 111.72756195 124.12143135 C112.45005798 126.12025452 112.45005798 126.12025452 112.45005798 128.12025452 C148.42005798 128.12025452 184.39005798 128.12025452 221.45005798 128.12025452 C221.45005798 85.88025452 221.45005798 43.64025452 221.45005798 0.12025452 C242.57005798 0.12025452 263.69005798 0.12025452 285.45005798 0.12025452 C285.45005798 42.36025452 285.45005798 84.60025452 285.45005798 128.12025452 C327.69005798 128.12025452 369.93005798 128.12025452 413.45005798 128.12025452 C413.45005798 85.88025452 413.45005798 43.64025452 413.45005798 0.12025452 C434.57005798 0.12025452 455.69005798 0.12025452 477.45005798 0.12025452 C477.17419861 9.08439514 476.89833923 18.04853577 476.61412048 27.28431702 C476.50619676 33.02689834 476.40615734 38.76791513 476.34068298 44.51087952 C476.23572608 53.59257515 476.10143164 62.66605001 475.7596283 71.74232483 C475.43784419 80.48604277 475.25758109 89.22185168 475.30162048 97.97181702 C475.30694023 99.02877006 475.30694023 99.02877006 475.31236744 100.10707569 C475.47282643 117.2481519 476.93993466 131.49248465 489.35005188 144.37962341 C495.24969578 149.96784484 501.56825829 154.81163941 508.45005798 159.12025452 C505.31081035 165.93295196 500.00215695 170.76862182 494.25250244 175.43878174 C484.95994149 183.21448108 477.568987 190.04734854 476.15330791 202.53543568 C475.87074429 208.40327264 475.90623438 214.22978181 476.11885619 220.09645104 C476.22382124 223.62745436 476.20635014 227.15810499 476.20330811 230.69036865 C476.21545147 237.34364843 476.33353105 243.99040427 476.49227554 250.64162654 C476.70100088 259.65328468 476.74089527 268.66571484 476.79156971 277.67938709 C476.87546928 291.83076391 477.18036316 305.96837375 477.45005798 320.12025452 C456.33005798 320.12025452 435.21005798 320.12025452 413.45005798 320.12025452 C413.45005798 277.88025452 413.45005798 235.64025452 413.45005798 192.12025452 C371.21005798 192.12025452 328.97005798 192.12025452 285.45005798 192.12025452 C285.45005798 234.36025452 285.45005798 276.60025452 285.45005798 320.12025452 C264.33005798 320.12025452 243.21005798 320.12025452 221.45005798 320.12025452 C221.45005798 277.88025452 221.45005798 235.64025452 221.45005798 192.12025452 C194.39005798 192.45025452 167.33005798 192.78025452 139.45005798 193.12025452 C147.28921403 212.82679666 147.28921403 212.82679666 155.13035679 232.53254795 C157.93761321 239.58653841 160.7445781 246.6406444 163.55039978 253.69520569 C166.01336583 259.8877361 168.47741362 266.0798351 170.94209099 272.27168465 C171.87725832 274.62154247 172.81207688 276.97153913 173.7465229 279.32168388 C175.06610004 282.64025655 176.38674974 285.95839917 177.70811462 289.27626038 C178.1183188 290.30674972 178.52852297 291.33723906 178.95115757 292.39895535 C181.72743013 299.35611082 184.55476196 306.29067414 187.47533512 313.18863583 C189.45005798 317.9052645 189.45005798 317.9052645 189.45005798 320.12025452 C168.33005798 320.12025452 147.21005798 320.12025452 125.45005798 320.12025452 C118.11600869 302.39630206 110.81953786 284.67728525 103.74693298 266.85072327 C102.88987081 264.69491676 102.03262794 262.53918209 101.17521667 260.3835144 C98.96408468 254.82301799 96.75533781 249.26157746 94.54716492 243.6999054 C92.27541065 237.97939944 90.00129353 232.25983294 87.72740173 226.54017639 C83.29936621 215.40109736 78.87386116 204.26101501 74.45005798 193.12025452 C69.51033626 193.01945969 64.57124539 192.94790543 59.63072205 192.90052795 C57.95906621 192.88072615 56.28747652 192.85367715 54.61607361 192.8184967 C39.82859302 192.5156206 24.23076064 193.50601447 11.01255798 200.87025452 C10.36552917 201.21242004 9.71850037 201.55458557 9.05186462 201.90711975 C-7.28478217 210.77327016 -18.50431995 223.7413056 -29.04994202 238.74525452 C-29.67110901 239.61138367 -29.67110901 239.61138367 -30.30482483 240.49501038 C-40.9431462 255.9295298 -47.52479097 273.37659615 -54.30799866 290.72517395 C-56.04402143 295.15934399 -57.79500882 299.58762563 -59.54542542 304.01612854 C-60.47162466 306.36180006 -61.39434708 308.70884799 -62.31324768 311.05738831 C-62.72457947 312.10358337 -63.13591125 313.14977844 -63.55970764 314.22767639 C-63.92116882 315.15124939 -64.28263 316.07482239 -64.65504456 317.02638245 C-65.54994202 319.12025452 -65.54994202 319.12025452 -66.54994202 320.12025452 C-68.54425931 320.21430593 -70.54193745 320.23768701 -72.53846741 320.23377991 C-73.81972 320.23370438 -75.1009726 320.23362885 -76.42105103 320.23355103 C-77.82990049 320.22844361 -79.23874957 320.2232276 -80.64759827 320.21791077 C-82.08106436 320.21604654 -83.51453109 320.21462266 -84.94799805 320.21362305 C-88.72754158 320.20979824 -92.50704691 320.19996828 -96.28657532 320.18891907 C-100.140635 320.17870415 -103.99470083 320.17412525 -107.84877014 320.16908264 C-115.41584488 320.15834597 -122.9828881 320.14127001 -130.54994202 320.12025452 C-125.91435163 307.56768354 -121.02307212 295.12449401 -116.06947327 282.69447327 C-115.2322744 280.59059427 -114.39517497 278.4866757 -113.5581665 276.38272095 C-111.30025185 270.70871805 -109.0400127 265.0356439 -106.77912903 259.36282349 C-105.35141611 255.78008583 -103.92435008 252.1970911 -102.49745178 248.61402893 C-87.36624939 210.62111006 -72.14724363 172.66389757 -56.87583923 134.72709656 C-47.24198119 110.79460702 -37.62980004 86.85405799 -28.10462952 62.87806702 C-27.68882881 61.83157486 -27.27302811 60.7850827 -26.84462738 59.70687866 C-22.88923641 49.75063199 -18.93772354 39.79286071 -14.99474907 29.83168983 C-13.58941447 26.28245135 -12.18221697 22.73395332 -10.77467728 19.18558884 C-9.81514912 16.76428053 -8.85851055 14.34184402 -7.90196228 11.9193573 C-7.3327946 10.48414445 -6.76347861 9.04899041 -6.19398499 7.61390686 C-5.93774857 6.96246326 -5.68151215 6.31101967 -5.41751099 5.63983536 C-3.23329863 0.15248141 -3.23329863 0.15248141 0 0 Z " fill="#8920F3" transform="translate(210.54994201660156,239.87974548339844)"/>
<path d="M0 0 C1.70209877 0.00333092 1.70209877 0.00333092 3.43858337 0.00672913 C4.71983597 0.00680466 6.00108856 0.00688019 7.32116699 0.00695801 C8.73001646 0.01206542 10.13886554 0.01728143 11.54771423 0.02259827 C12.98118033 0.02446249 14.41464706 0.02588637 15.84811401 0.02688599 C19.62765755 0.03071079 23.40716288 0.04054075 27.18669128 0.05158997 C31.04075097 0.06180489 34.8948168 0.06638378 38.74888611 0.07142639 C46.31596085 0.08216306 53.88300407 0.09923903 61.45005798 0.12025452 C64.61941534 6.22926997 67.27764244 12.4325493 69.80381775 18.83143616 C70.21898651 19.87474594 70.63415527 20.91805573 71.06190491 21.99298096 C72.42505026 25.42082642 73.7832438 28.85061127 75.14146423 32.28041077 C76.09229608 34.67372725 77.04346808 37.06690862 77.9949646 39.45996094 C80.23916772 45.10628103 82.48036668 50.75378428 84.71996015 56.40193409 C88.96760667 67.1138573 93.22269779 77.82282482 97.47735405 88.53196526 C98.87160057 92.04289104 100.26431132 95.5544228 101.65673828 99.06607056 C102.51303497 101.22354469 103.36935204 103.38101074 104.22569275 105.53846741 C104.6107045 106.51061188 104.99571625 107.48275635 105.39239502 108.48435974 C105.752547 109.39114975 106.11269897 110.29793976 106.48376465 111.23220825 C106.81839281 112.07549746 107.15302097 112.91878666 107.49778938 113.78763008 C108.35742661 115.89334982 109.27443971 117.96079806 110.21408081 120.03161621 C111.45005798 123.12025452 111.45005798 123.12025452 111.45005798 127.12025452 C90.66005798 127.12025452 69.87005798 127.12025452 48.45005798 127.12025452 C45.54289819 120.72450297 42.67817966 114.42081028 40.11802673 107.89759827 C39.83655289 107.18543655 39.55507904 106.47327484 39.26507568 105.73953247 C38.68150971 104.26063854 38.09937041 102.78118085 37.5186615 101.30116272 C36.62614319 99.02869092 35.72681715 96.75898976 34.82701111 94.48939514 C34.25694394 93.04228927 33.68726753 91.5950294 33.11802673 90.14759827 C32.84935287 89.47059372 32.58067902 88.79358917 32.30386353 88.09606934 C30.45005798 83.3499249 30.45005798 83.3499249 30.45005798 81.12025452 C29.79005798 81.12025452 29.13005798 81.12025452 28.45005798 81.12025452 C28.35251221 81.77158356 28.25496643 82.4229126 28.15446472 83.09397888 C27.22444791 87.08952159 25.72227395 90.7461692 24.17955017 94.54066467 C23.84100761 95.3834837 23.50246506 96.22630272 23.15366364 97.09466171 C22.02202176 99.90948152 20.88439101 102.72184303 19.74693298 105.53431702 C18.93882373 107.5418278 18.131197 109.54953287 17.32402039 111.55741882 C15.59827032 115.84943134 13.87056207 120.14064851 12.14170837 124.43141174 C8.10156506 134.46440223 4.09008543 144.50885839 0.07620239 154.55237579 C-2.20426326 160.25776002 -4.48657476 165.96240577 -6.76869202 171.66712952 C-7.68666955 173.96204788 -8.60463827 176.25696976 -9.52259827 178.55189514 C-25.92829895 219.56614685 -25.92829895 219.56614685 -27.13267899 222.57676125 C-27.89774671 224.48965077 -28.66251479 226.40266018 -29.42695236 228.31580162 C-31.07497486 232.439423 -32.72631384 236.56155223 -34.39234924 240.67793274 C-34.67038517 241.36681894 -34.9484211 242.05570515 -35.23488235 242.76546669 C-35.95485441 244.54815058 -36.67735293 246.32981356 -37.40010071 248.1113739 C-38.72797359 251.5861238 -39.79827609 255.07565598 -40.71400452 258.67884827 C-41.54994202 261.12025452 -41.54994202 261.12025452 -43.30653381 264.5426178 C-45.97176883 269.82750496 -48.11085691 275.3011507 -50.28041077 280.80384827 C-50.7163002 281.89995926 -51.15218964 282.99607025 -51.60128784 284.12539673 C-52.98334092 287.6015363 -54.36081404 291.07946327 -55.73744202 294.55775452 C-57.12511933 298.06090186 -58.51383052 301.56362244 -59.9057312 305.06509399 C-60.7696831 307.2386722 -61.6311485 309.41324065 -62.4899292 311.58886719 C-62.87735794 312.56400772 -63.26478668 313.53914825 -63.66395569 314.5438385 C-64.17547432 315.83668007 -64.17547432 315.83668007 -64.69732666 317.15563965 C-65.54994202 319.12025452 -65.54994202 319.12025452 -66.54994202 320.12025452 C-68.54425931 320.21430593 -70.54193745 320.23768701 -72.53846741 320.23377991 C-73.81972 320.23370438 -75.1009726 320.23362885 -76.42105103 320.23355103 C-77.82990049 320.22844361 -79.23874957 320.2232276 -80.64759827 320.21791077 C-82.08106436 320.21604654 -83.51453109 320.21462266 -84.94799805 320.21362305 C-88.72754158 320.20979824 -92.50704691 320.19996828 -96.28657532 320.18891907 C-100.140635 320.17870415 -103.99470083 320.17412525 -107.84877014 320.16908264 C-115.41584488 320.15834597 -122.9828881 320.14127001 -130.54994202 320.12025452 C-125.91435163 307.56768354 -121.02307212 295.12449401 -116.06947327 282.69447327 C-115.2322744 280.59059427 -114.39517497 278.4866757 -113.5581665 276.38272095 C-111.30025185 270.70871805 -109.0400127 265.0356439 -106.77912903 259.36282349 C-105.35141611 255.78008583 -103.92435008 252.1970911 -102.49745178 248.61402893 C-87.36624939 210.62111006 -72.14724363 172.66389757 -56.87583923 134.72709656 C-47.24198119 110.79460702 -37.62980004 86.85405799 -28.10462952 62.87806702 C-27.68882881 61.83157486 -27.27302811 60.7850827 -26.84462738 59.70687866 C-22.88923641 49.75063199 -18.93772354 39.79286071 -14.99474907 29.83168983 C-13.58941447 26.28245135 -12.18221697 22.73395332 -10.77467728 19.18558884 C-9.81514912 16.76428053 -8.85851055 14.34184402 -7.90196228 11.9193573 C-7.3327946 10.48414445 -6.76347861 9.04899041 -6.19398499 7.61390686 C-5.93774857 6.96246326 -5.68151215 6.31101967 -5.41751099 5.63983536 C-3.23329863 0.15248141 -3.23329863 0.15248141 0 0 Z " fill="#424242" transform="translate(210.54994201660156,239.87974548339844)"/>
<path d="M0 0 C0.66 0 1.32 0 2 0 C7.94 14.85 13.88 29.7 20 45 C41.12 45 62.24 45 84 45 C84 45.66 84 46.32 84 47 C119.97 47 155.94 47 193 47 C193 68.12 193 89.24 193 111 C165.94 111.33 138.88 111.66 111 112 C118.83915605 131.70654214 118.83915605 131.70654214 126.68029881 151.41229343 C129.48755523 158.4662839 132.29452012 165.52038988 135.1003418 172.57495117 C137.56330785 178.76748159 140.02735564 184.95958059 142.492033 191.15143013 C143.42720034 193.50128795 144.3620189 195.85128461 145.29646492 198.20142937 C146.61604206 201.52000203 147.93669176 204.83814465 149.25805664 208.15600586 C149.66826081 209.1864952 150.07846498 210.21698454 150.50109959 211.27870083 C153.27737215 218.23585631 156.10470398 225.17041963 159.02527714 232.06838131 C161 236.78500998 161 236.78500998 161 239 C139.88 239 118.76 239 97 239 C89.66595071 221.27604754 82.36947988 203.55703073 75.296875 185.73046875 C74.43981283 183.57466225 73.58256995 181.41892757 72.72515869 179.26325989 C70.5140267 173.70276347 68.30527983 168.14132295 66.09710693 162.57965088 C63.82535266 156.85914492 61.55123554 151.13957843 59.27734375 145.41992188 C54.84930822 134.28084285 50.42380318 123.14076049 46 112 C41.06027827 111.89920518 36.1211874 111.82765091 31.18066406 111.78027344 C29.50900823 111.76047163 27.83741853 111.73342263 26.16601562 111.69824219 C11.37853503 111.39536608 -4.21929735 112.38575995 -17.4375 119.75 C-18.40804321 120.26324829 -18.40804321 120.26324829 -19.39819336 120.78686523 C-40.6786102 132.33607596 -55.42063255 152.1625369 -67 173 C-68.15190649 169.54428052 -67.87574207 169.00961046 -66.56182861 165.76551819 C-66.21729141 164.90154419 -65.87275421 164.03757019 -65.51777649 163.14741516 C-64.93518318 161.72878426 -64.93518318 161.72878426 -64.34082031 160.28149414 C-63.93923203 159.28240021 -63.53764374 158.28330627 -63.12388611 157.25393677 C-61.78419322 153.92734337 -60.43113577 150.60635274 -59.078125 147.28515625 C-58.13811343 144.95790378 -57.19897905 142.63029682 -56.26068115 140.30235291 C-54.02818349 134.76914675 -51.78744359 129.23935113 -49.54252791 123.71117729 C-46.78795808 116.92694552 -44.04402571 110.13842861 -41.30078125 103.34960938 C-40.32912652 100.94519668 -39.35746216 98.54078788 -38.38578796 96.13638306 C-37.91085089 94.96109669 -37.43591381 93.78581032 -36.9465847 92.57490921 C-35.52086578 89.04812033 -34.09385672 85.52185579 -32.6665802 81.99569702 C-26.7066206 67.26568669 -20.82507257 52.50968644 -15.05743408 37.70333862 C-12.18798124 30.36755965 -9.24539598 23.06058441 -6.3125 15.75 C-5.68806562 14.19144047 -5.0637169 12.63284662 -4.43945312 11.07421875 C-2.96060607 7.3824227 -1.48065923 3.6910696 0 0 Z " fill="#881FF2" transform="translate(239,321)"/>
<path d="M0 0 C21.12 0 42.24 0 64 0 C64 105.6 64 211.2 64 320 C42.88 320 21.76 320 0 320 C0 214.4 0 108.8 0 0 Z " fill="#2F2F2F" transform="translate(432,240)"/>
<path d="M0 0 C8.16227597 -0.11580043 16.32420938 -0.20466639 24.48710346 -0.25906086 C28.27742313 -0.28516647 32.06718128 -0.32057991 35.85717773 -0.37719727 C39.51414195 -0.43148603 43.1705658 -0.46141327 46.82790184 -0.47438622 C48.22384336 -0.48363205 49.61975496 -0.5016876 51.01546669 -0.52865028 C52.96875847 -0.56488701 54.92259292 -0.5670419 56.8762207 -0.56762695 C58.5450103 -0.58428154 58.5450103 -0.58428154 60.24751282 -0.60127258 C63 0 63 0 64.62069702 1.90098572 C66.57145556 6.28394484 68.41778981 10.69471766 70.19262695 15.15185547 C70.60283081 16.17212326 71.01303467 17.19239105 71.43566895 18.24357605 C72.79059653 21.6165011 74.1394552 24.99181835 75.48828125 28.3671875 C76.4333203 30.72322181 77.37873517 33.0791054 78.32450867 35.43484497 C80.562249 41.01127201 82.79617305 46.58921287 85.02825755 52.16790497 C87.54551633 58.45872545 90.06764299 64.74759006 92.59019148 71.03629088 C96.94506603 81.89333527 101.29989461 92.75041049 105.64171314 103.61268425 C107.39994684 108.01074711 109.16212856 112.40691465 110.94638062 116.79449463 C111.23309978 117.50220064 111.51981894 118.20990665 111.81522655 118.9390583 C112.55268657 120.75759509 113.29371097 122.57468537 114.03507996 124.39163208 C115 127 115 127 115 129 C93.88 129 72.76 129 51 129 C43.67475726 111.29733005 36.3795844 93.5991417 29.296875 75.80078125 C28.43970559 73.64980858 27.58246519 71.4988642 26.72515869 69.34794617 C24.95946388 64.91650155 23.195282 60.48445843 21.43212891 56.05200195 C19.16955346 50.36468606 16.90194193 44.67939195 14.63315964 38.99454975 C12.8756734 34.58877001 11.1212973 30.18175699 9.367836 25.77437401 C8.5316165 23.67389779 7.69429753 21.57385894 6.85585785 19.47426796 C5.69720039 16.57177399 4.54285862 13.66760117 3.38964844 10.76293945 C2.87090904 9.46750717 2.87090904 9.46750717 2.34169006 8.14590454 C2.03087997 7.36047775 1.72006989 6.57505096 1.39984131 5.76582336 C1.12782772 5.08264699 0.85581413 4.39947062 0.57555771 3.69559193 C0 2 0 2 0 0 Z " fill="#302F30" transform="translate(285,431)"/>
<path d="M0 0 C21.12 0 42.24 0 64 0 C64 42.24 64 84.48 64 128 C42.88 128 21.76 128 0 128 C0 85.76 0 43.52 0 0 Z " fill="#2F2F2F" transform="translate(624,432)"/>
<path d="M0 0 C21.12 0 42.24 0 64 0 C64 42.24 64 84.48 64 128 C42.88 128 21.76 128 0 128 C0 85.76 0 43.52 0 0 Z " fill="#2F2F2F" transform="translate(624,240)"/>
<path d="M0 0 C3 1 3 1 4.02672386 2.77620411 C4.33456118 3.55612563 4.64239849 4.33604715 4.95956421 5.13960266 C5.49762444 6.47874474 5.49762444 6.47874474 6.04655457 7.84494019 C6.62171562 9.3260881 6.62171562 9.3260881 7.20849609 10.8371582 C7.62030624 11.87141434 8.03211639 12.90567047 8.45640564 13.9712677 C9.8227056 17.41033381 11.17300194 20.85545808 12.5234375 24.30078125 C13.47023397 26.69239058 14.41805282 29.08359541 15.36685181 31.47441101 C17.61438383 37.14467517 19.85201738 42.81875138 22.08479941 48.49483699 C24.85461461 55.53470772 27.63790808 62.56923191 30.421875 69.60351562 C33.27018018 76.80065281 36.1174337 83.99818195 38.95443726 91.19978333 C39.38995407 92.30435883 39.82547089 93.40893433 40.27418518 94.54698181 C41.07787039 96.58569517 41.88069242 98.62474915 42.68238831 100.66424561 C45.03190578 106.62131163 47.4900739 112.51583841 50.06330299 118.38025188 C51 121 51 121 51 125 C30.21 125 9.42 125 -12 125 C-13.65 121.37 -15.3 117.74 -17 114 C-18.47458405 110.96389943 -18.47458405 110.96389943 -19.95750427 107.93186951 C-21.3391627 105.05544681 -22.62631248 102.13965838 -23.90795898 99.2175293 C-24.58895222 97.70939654 -25.30200827 96.21529744 -26.04760742 94.73803711 C-29.9139312 87.0217104 -32.06218152 80.50460576 -29.53613281 71.99121094 C-27.51364833 66.34104782 -25.07798991 60.89348062 -22.56265259 55.44790649 C-19.97754506 49.74400974 -17.72943898 43.90918651 -15.4296875 38.0859375 C-14.50785086 35.79971397 -13.58337879 33.51455129 -12.65625 31.23046875 C-12.19992187 30.10560059 -11.74359375 28.98073242 -11.2734375 27.82177734 C-10.81195313 26.68434082 -10.35046875 25.5469043 -9.875 24.375 C-8.90864825 21.98836462 -7.94250166 19.60164615 -6.9765625 17.21484375 C-4.65338996 11.47560904 -2.32774827 5.73738029 0 0 Z " fill="#303030" transform="translate(271,242)"/>
<path d="M0 0 C0.66 0 1.32 0 2 0 C4.56828878 6.37014069 7.13123751 12.7424103 9.69042969 19.11621094 C10.56223783 21.28565446 11.43528146 23.4546019 12.30957031 25.62304688 C13.56377707 28.73438972 14.81357506 31.84747138 16.0625 34.9609375 C16.45622803 35.934935 16.84995605 36.9089325 17.25561523 37.91244507 C17.61598877 38.81322784 17.9763623 39.71401062 18.34765625 40.64208984 C18.66742432 41.43706879 18.98719238 42.23204773 19.31665039 43.05111694 C20 45 20 45 20 47 C19.21463867 47.03963867 18.42927734 47.07927734 17.62011719 47.12011719 C13.99560077 47.31289928 10.37304168 47.53130533 6.75 47.75 C5.51507813 47.811875 4.28015625 47.87375 3.0078125 47.9375 C-5.22287401 48.45733283 -12.32513185 49.97203858 -20 53 C-19.38333027 49.4834947 -18.46282569 46.34046978 -17.14233398 43.02612305 C-16.76201523 42.06550461 -16.38169647 41.10488617 -15.98985291 40.11515808 C-15.57941238 39.0910231 -15.16897186 38.06688812 -14.74609375 37.01171875 C-14.32578384 35.95338333 -13.90547394 34.89504791 -13.47242737 33.80464172 C-12.13142203 30.43066551 -10.78454284 27.0590697 -9.4375 23.6875 C-8.52630437 21.39794097 -7.61549251 19.10822917 -6.70507812 16.81835938 C-4.47449915 11.21046047 -2.23909527 5.6045036 0 0 Z " fill="#FAF9FB" transform="translate(239,321)"/>
<path d="M0 0 C0.33 0.66 0.66 1.32 1 2 C0.00390625 4.1640625 0.00390625 4.1640625 -1.4375 6.625 C-1.91058594 7.44226563 -2.38367188 8.25953125 -2.87109375 9.1015625 C-3.24363281 9.72804688 -3.61617187 10.35453125 -4 11 C-5 8 -5 8 -3.6875 4.375 C-2 1 -2 1 0 0 Z " fill="#7E1DDF" transform="translate(176,483)"/>
</svg>
